# xmcd
#
# Track frame offsets:
#	150
#	20260
#	35560
#	48915
#	69212
#	83637
#	102915
#	124360
#	138707
#	151482
#	167875
#	177282
#	189785
#	207372
#	219592
#
# Disc length: 3219
#
# Revision: 3
# Processed by: cddbd v1.5.1PL0 Copyright (c) Steve Scherf et al.
# Submitted via: CDValet v3.31 - Copyright (c) 1997 Greg Leichner
# Normalized: r1:DSETVAR1,TDELIM( - ),TSWAP
#
DISCID=cd0c910f
DTITLE=Various Artist - *Country's Greatest CD3*
DYEAR=1900
DGENRE=
TTITLE0=Reba McEntire - Let The Music Lift You Up
TTITLE1=Lee Greenwood - Mornin' Ride
TTITLE2=Waylon Jennings - What You'll Do When I'm Gone
TTITLE3=Orleans - Grown Up Children
TTITLE4=Barbara Mandrell - No One Mends A Broken Heart Like You
TTITLE5=Steve Wariner - Starting Over Again
TTITLE6=Ray Stevens - Peoples Court
TTITLE7=Don Williams - Tulsa Time
TTITLE8=Conway Twitty - Tight Fittin' Jeans
TTITLE9=Steve Earl - Hillbilly Highway
TTITLE10=Burl Ives - A Little Bitty Tear
TTITLE11=Reba McEntire - Have I Got A Deal For You
TTITLE12=Patty Loveless - After All
TTITLE13=Nanci Griffith - Cold Hearts-Closed Mind s
TTITLE14=Conway Twitty - That's My Job
EXTD=
EXTT0=
EXTT1=
EXTT2=
EXTT3=
EXTT4=
EXTT5=
EXTT6=
EXTT7=
EXTT8=
EXTT9=
EXTT10=
EXTT11=
EXTT12=
EXTT13=
EXTT14=
PLAYORDER=
